Coordinates
version=1
nRows=22
nColumns=24
inDegrees=yes

Units are S.I. units (second, meters, Newtons, ...)
Angles are in degrees.

endheader
time	pelvis_tilt	pelvis_list	pelvis_rotation	pelvis_tx	pelvis_ty	pelvis_tz	hip_flexion_r	hip_adduction_r	hip_rotation_r	knee_angle_r	ankle_angle_r	subtalar_angle_r	mtp_angle_r	hip_flexion_l	hip_adduction_l	hip_rotation_l	knee_angle_l	ankle_angle_l	subtalar_angle_l	mtp_angle_l	lumbar_extension	lumbar_bending	lumbar_rotation
      0.88766667	     -3.18105206	     -3.52448294	     -2.86181417	     -0.19257580	      1.06484868	      0.34932077	     -3.36284334	      8.18689032	     -0.72992869	    -12.94659664	      8.06814013	     -7.16042485	      1.71634601	     24.55286988	     -1.28361434	     -3.51266065	     -4.39587276	      1.36272211	     -6.88004435	      3.04061031	      6.36030079	      8.59394042	      1.83966326
      0.89183333	     -3.13617602	     -3.55787789	     -2.81505690	     -0.18674023	      1.06425634	      0.34925352	     -3.50048998	      8.21042588	     -0.80676069	    -13.45602260	      8.17553637	     -7.06682299	      1.73263372	     24.42073588	     -1.22076056	     -3.63193524	     -4.19677627	      1.30571912	     -6.21388609	      2.86140073	      6.42066469	      8.57092736	      1.84229094
      0.89600000	     -3.14724743	     -3.59081367	     -2.85764344	     -0.18098054	      1.06361196	      0.34916704	     -3.53307662	      8.21295638	     -0.81706929	    -14.04686357	      8.14039586	     -7.08068726	      1.73512599	     24.31903283	     -1.18474167	     -3.57493859	     -4.03878289	      1.31433747	     -6.11947499	      2.84248627	      6.44419987	      8.58123643	      1.83512178
      0.90016667	     -3.15577751	     -3.56572873	     -2.90040309	     -0.17501173	      1.06303192	      0.34899890	     -3.55522076	      8.13322752	     -0.89414764	    -14.67700513	      8.11679331	     -7.02779024	      1.74490291	     24.18630906	     -1.07965647	     -3.48541874	     -3.92380823	      1.27270425	     -5.87598853	      2.79820050	      6.44684114	      8.61883662	      1.82863106
      0.90433333	     -3.12754041	     -3.59925894	     -2.93450026	     -0.16924718	      1.06247411	      0.34895166	     -3.57762810	      8.12981250	     -0.94296950	    -15.37253775	      8.07346535	     -6.99691408	      1.75059435	     24.05058301	     -1.04878118	     -3.39405135	     -3.93155018	      1.23148540	     -5.74431501	      2.78167000	      6.50534678	      8.59635080	      1.83512642
      0.90850000	     -3.08245628	     -3.58454081	     -2.87010519	     -0.16325159	      1.06196155	      0.34863339	     -3.60120117	      8.05201129	     -1.23031886	    -16.10106299	      8.03981153	     -6.55490673	      1.79737611	     23.88819796	     -0.91308994	     -3.22285015	     -3.98963903	      1.05605136	     -5.22065716	      2.68257604	      6.48659816	      8.58850383	      1.86887065
      0.91266667	     -3.04348170	     -3.58101934	     -2.95317327	     -0.15740640	      1.06149641	      0.34863108	     -3.57721877	      7.98704802	     -1.27433863	    -16.91530177	      7.98085102	     -6.53428549	      1.80491771	     23.70944606	     -0.86361767	     -3.10621978	     -4.08364619	      1.02833813	     -5.13430909	      2.67122980	      6.53191728	      8.56560659	      1.87047227
      0.91683333	     -3.00534519	     -3.55885530	     -3.04132636	     -0.15150851	      1.06106012	      0.34858011	     -3.51921275	      7.88725130	     -1.37492905	    -17.79485497	      7.88929797	     -6.47196426	      1.81466227	     23.51723528	     -0.79136104	     -2.96512681	     -4.20769785	      0.96015105	     -5.02501808	      2.66073254	      6.55596517	      8.53554471	      1.87578884
      0.92100000	     -2.95688691	     -3.50831266	     -2.99131151	     -0.14546173	      1.06062660	      0.34814539	     -3.44516563	      7.73079073	     -1.76060431	    -18.70553598	      7.64084233	     -5.77538223	      1.89016055	     23.31829104	     -0.61307665	     -2.67637596	     -4.36690783	      0.63451516	     -4.80923307	      2.59500906	      6.46020038	      8.48035302	      1.93478198
      0.92516667	     -2.91270255	     -3.43244064	     -3.10540386	     -0.13945367	      1.06028005	      0.34804252	     -3.32787346	      7.54281887	     -1.90894201	    -19.71434756	      7.53858915	     -5.63548586	      1.92111648	     23.08107029	     -0.48709575	     -2.50645469	     -4.51616591	      0.54546303	     -4.76817862	      2.57553199	      6.44963921	      8.45689323	      1.94161072
      0.92933333	     -2.83007168	     -3.39484028	     -3.10501137	     -0.13354860	      1.05994916	      0.34774484	     -3.21043154	      7.38783876	     -2.22604284	    -20.76559239	      7.21513974	     -4.98500606	      2.02283882	     22.83429960	     -0.35214016	     -2.24263111	     -4.72078598	      0.19623705	     -4.88952351	      2.52293514	      6.40076455	      8.34488161	      2.01002838
      0.93350000	     -2.71465584	     -3.29138105	     -3.18292352	     -0.12754903	      1.05975378	      0.34739558	     -3.09391047	      7.12588387	     -2.49201732	    -21.89791823	      7.04945257	     -4.36852763	      2.24644238	     22.48540220	     -0.16164513	     -1.86817248	     -4.84089816	     -0.17496572	     -5.38894207	      2.43749861	      6.38778159	      8.33147594	      2.08248944
      0.93766667	     -2.67662408	     -3.22212423	     -3.24144649	     -0.12167218	      1.05943206	      0.34726508	     -2.84829344	      6.93019490	     -2.74301023	    -23.09534708	      6.69397738	     -4.13851040	      2.34620823	     22.27289760	     -0.02964516	     -1.72787463	     -5.07787733	     -0.41930777	     -5.49042310	      2.40913774	      6.30369223	      8.16064425	      2.11875666
      0.94183333	     -2.60889177	     -3.11080140	     -3.32130033	     -0.11572027	      1.05921504	      0.34705291	     -2.60163537	      6.66186647	     -2.99536386	    -24.34117348	      6.18327532	     -3.72254065	      2.48924686	     21.98929123	      0.14980966	     -1.51915802	     -5.25538535	     -0.78773382	     -5.75964457	      2.37736398	      6.28975896	      8.03971199	      2.16633195
      0.94600000	     -2.54985156	     -2.98620541	     -3.40574434	     -0.10981559	      1.05900683	      0.34684760	     -2.30105657	      6.37219534	     -3.24618080	    -25.66199869	      5.68712574	     -3.33343633	      2.65392897	     21.71300462	      0.33936092	     -1.31502404	     -5.43628847	     -1.15934940	     -6.14739347	      2.34933872	      6.24994155	      7.87272993	      2.21916430
      0.95016667	     -2.50518053	     -2.83462328	     -3.49071431	     -0.10390091	      1.05880912	      0.34640767	     -1.93831649	      6.01750856	     -3.54811547	    -27.06823286	      5.31468724	     -2.89451203	      3.14769849	     21.42287928	      0.57763564	     -0.93996375	     -5.55879125	     -1.72919234	     -7.12812835	      2.29251117	      6.28769796	      7.82506453	      2.31038670
      0.95433333	     -2.43117597	     -2.68238792	     -3.57613799	     -0.09805009	      1.05868644	      0.34633491	     -1.57862359	      5.69653932	     -3.76135362	    -28.49070029	      4.62164545	     -2.61489978	      3.29231152	     21.13791316	      0.77710787	     -0.87051206	     -5.76420678	     -1.98411849	     -7.21207322	      2.28094721	      6.22470937	      7.55924323	      2.34070482
      0.95850000	     -2.37321101	     -2.50433253	     -3.68279282	     -0.09224403	      1.05857242	      0.34618294	     -1.15337188	      5.32885809	     -3.96078585	    -29.98187945	      3.85769060	     -2.30513673	      3.46130461	     20.86244548	      1.00222876	     -0.77423852	     -5.95168616	     -2.31952346	     -7.51778769	      2.26635056	      6.17623338	      7.32629703	      2.37405468
      0.96266667	     -2.30644098	     -2.30305273	     -3.78874856	     -0.08645558	      1.05849963	      0.34600171	     -0.69941112	      4.92592209	     -4.15854489	    -31.52500385	      3.07934905	     -2.02152420	      3.63719274	     20.57299322	      1.25255809	     -0.65955084	     -6.12689513	     -2.66772242	     -7.91578745	      2.25151854	      6.12769503	      7.06657021	      2.41508587
      0.96683333	     -2.23968776	     -2.08230423	     -3.89998728	     -0.08070095	      1.05845489	      0.34577957	     -0.20576187	      4.49162964	     -4.33902489	    -33.11533043	      2.22250223	     -1.75080374	      3.83795246	     20.28541576	      1.52175936	     -0.55493965	     -6.30156978	     -3.03609158	     -8.40044569	      2.23491821	      6.09050296	      6.80952742	      2.45749615
      0.97100000	     -2.18289014	     -1.84318936	     -4.00305551	     -0.07499542	      1.05840575	      0.34555820	      0.33623318	      4.03729115	     -4.50279391	    -34.75335822	      1.37986670	     -1.53913388	      4.03308700	     20.01727854	      1.80678473	     -0.45381242	     -6.48713177	     -3.36205001	     -8.84053778	      2.21942629	      6.04880454	      6.52333471	      2.49895768
      0.97516667	     -2.11880437	     -1.56200622	     -4.09832949	     -0.06914449	      1.05841392	      0.34520909	      0.88905342	      3.51714256	     -4.69273270	    -36.39517435	      0.34495105	     -1.35973310	      4.39643901	     19.73458593	      2.15098224	     -0.43622360	     -6.65787614	     -3.81045916	     -9.58772815	      2.19079826	      6.16904738	      6.33080179	      2.55664560
